<svg width="1404" height="1259" viewBox="0 0 1404 1259" fill="none" xmlns="http://www.w3.org/2000/svg">
<path d="M1456.26 347.137V356.827H1092.89V533.189H1074.35V356.827H1047.8V347.137H1456.26Z" fill="#7E0000" stroke="#7E0000" stroke-width="2.52221"/>
<path d="M1010.24 347.137V448.726H1055V458.416H991.702V347.137H1010.24Z" fill="#7E0000" stroke="#7E0000" stroke-width="2.52221"/>
<path d="M907.239 1.26123L907.24 2.52197V441.097C907.24 441.835 907.328 442.936 907.52 444.427C907.686 445.686 908.168 446.983 909.007 448.322C909.786 449.523 911.035 450.642 912.839 451.647C914.51 452.578 916.978 453.106 920.36 453.106C923.179 453.106 925.923 452.978 928.593 452.723C931.266 452.468 933.99 452.085 936.764 451.574L936.768 451.573C939.241 451.124 941.809 450.577 944.472 449.931L945.619 449.648C948.444 448.9 951.515 448.023 954.833 447.021V347.059H973.261V1256.78H954.833V455.348L938.737 460.169C936.281 460.914 933.801 461.549 931.296 462.075C928.804 462.597 926.382 463.033 924.031 463.382C921.676 463.732 919.437 463.974 917.315 464.106L917.314 464.105C915.218 464.278 913.351 464.368 911.717 464.368C908.202 464.368 905.149 464.015 902.583 463.284V463.283C900.081 462.612 897.948 461.727 896.215 460.604L896.204 460.598L896.194 460.591C894.497 459.445 893.12 458.157 892.096 456.716C891.13 455.358 890.375 454.018 889.847 452.7L889.831 452.659C889.374 451.392 889.058 450.207 888.897 449.112L888.89 449.047C888.792 448.007 888.739 447.201 888.739 446.664V1.26123H907.239Z" fill="#7E0000" stroke="#7E0000" stroke-width="2.52221"/>
<path d="M824.558 347.137L824.883 347.908L870.814 456.665L871.554 458.416H851.923L851.597 457.648L845.926 444.301H788.142L782.612 457.638L782.29 458.416H770.699L771.436 456.667L811.09 362.367L805.444 348.885L804.712 347.137H824.558ZM792.192 434.611H841.852L816.784 375.917L792.192 434.611Z" fill="#7E0000" stroke="#7E0000" stroke-width="2.52221"/>
<path d="M698.116 347.137L698.435 347.927L733.054 433.802L769.168 347.909L769.493 347.137H780.493L779.758 348.886L738.419 447.284L742.313 456.672L743.037 458.416H723.033L722.717 457.623L679.272 348.866L678.582 347.137H698.116Z" fill="#7E0000" stroke="#7E0000" stroke-width="2.52221"/>
<path d="M673.44 347.137V356.827H622.901V387.29H671.904V396.98H622.901V448.726H673.44V458.416H604.362V347.137H673.44Z" fill="#7E0000" stroke="#7E0000" stroke-width="2.52221"/>
<path d="M542.064 347.137C548.32 347.137 553.762 347.703 558.371 348.853H558.372C562.99 349.946 566.937 351.421 570.188 353.3L570.796 353.653C573.792 355.435 576.249 357.481 578.14 359.805L578.514 360.261C580.354 362.547 581.788 364.917 582.799 367.373H582.798C583.904 369.941 584.64 372.521 584.999 375.114L585.139 376.041C585.445 378.187 585.6 380.213 585.6 382.115C585.6 384.931 585.139 388.04 584.241 391.433C583.369 394.912 581.762 398.264 579.445 401.49C577.143 404.764 573.995 407.698 570.038 410.302L570.029 410.309C566.445 412.623 562.037 414.321 556.839 415.438L587.108 456.406L588.594 458.416H565.857L565.479 457.906L535.139 416.947H525.188V553.81H-29.2607V535.232H506.648L506.647 348.398V347.137H542.064ZM525.188 407.183H533.068C538.208 407.183 542.817 406.727 546.901 405.826C551.013 404.881 554.462 403.403 557.278 401.419C560.125 399.398 562.302 396.811 563.819 393.638C565.328 390.435 566.109 386.51 566.109 381.822C566.109 376.5 565.157 372.3 563.35 369.137L563.346 369.131C561.497 365.849 559.066 363.333 556.051 361.552L556.043 361.548C553.025 359.737 549.546 358.494 545.587 357.834C541.562 357.163 537.438 356.827 533.215 356.827H525.188V407.183Z" fill="#7E0000" stroke="#7E0000" stroke-width="2.52221"/>
<path d="M438.055 346.745C443.487 346.745 448.724 347.784 453.757 349.859L454.695 350.244C459.363 352.221 463.737 354.975 467.817 358.494L468.629 359.193C472.659 362.733 476.331 366.942 479.648 371.812L480.315 372.792C483.614 377.725 486.434 383.134 488.776 389.014L489.247 390.196C491.566 396.133 493.366 402.478 494.648 409.229C496.068 416.443 496.777 423.908 496.777 431.619C496.777 439.473 496.068 447.044 494.649 454.33C493.281 461.532 491.325 468.306 488.778 474.651C486.28 480.923 483.238 486.657 479.652 491.851L479.653 491.852C476.115 497.047 472.174 501.525 467.826 505.276L467.817 505.284C463.467 508.965 458.784 511.844 453.771 513.913C448.734 515.992 443.492 517.033 438.055 517.033C432.57 517.033 427.281 515.993 422.196 513.915L422.192 513.913C417.181 511.845 412.476 508.967 408.079 505.289L408.071 505.282L408.064 505.276C403.719 501.527 399.755 497.051 396.17 491.858L396.165 491.852C392.629 486.659 389.589 480.926 387.043 474.656L387.041 474.651C384.494 468.307 382.513 461.533 381.097 454.332L381.095 454.321C379.725 447.038 379.042 439.47 379.042 431.619C379.042 423.91 379.726 416.45 381.096 409.238L381.097 409.229C382.514 402.028 384.495 395.288 387.043 389.014C389.589 382.744 392.629 377.011 396.165 371.818L396.17 371.812C399.757 366.617 403.724 362.175 408.074 358.494L408.079 358.489C412.476 354.811 417.181 351.934 422.192 349.865L422.196 349.863C427.281 347.785 432.57 346.745 438.055 346.745ZM438.055 359.746C431.588 359.746 425.956 361.575 421.109 365.218L421.104 365.222C416.251 368.835 412.134 373.827 408.772 380.243L408.771 380.242C405.453 386.667 402.925 394.289 401.202 403.125C399.526 411.967 398.687 421.464 398.687 431.619C398.687 441.847 399.551 451.417 401.275 460.331H401.274C402.998 469.169 405.529 476.83 408.851 483.33H408.85C412.211 489.814 416.352 494.876 421.254 498.56C426.104 502.205 431.689 504.032 438.055 504.032C444.37 504.032 449.904 502.207 454.705 498.563L454.709 498.56C459.612 494.875 463.754 489.811 467.116 483.324C470.484 476.826 473.039 469.166 474.762 460.329L474.763 460.324C476.534 451.412 477.423 441.845 477.423 431.619C477.423 421.464 476.558 411.967 474.834 403.125C473.111 394.288 470.558 386.667 467.191 380.243L467.188 380.236C463.877 373.826 459.762 368.837 454.863 365.225L454.854 365.218C450.004 361.573 444.42 359.746 438.055 359.746Z" fill="#7E0000" stroke="#7E0000" stroke-width="2.52221"/>
<path d="M326.837 325.155V448.726H371.598V458.417H308.297V343.478H-28.7451V325.155H326.837Z" fill="#7E0000" stroke="#7E0000" stroke-width="2.52221"/>
</svg>
