<svg width="1030" height="393" viewBox="0 0 1030 393" fill="none" xmlns="http://www.w3.org/2000/svg">
<mask id="path-1-outside-1_414_13" maskUnits="userSpaceOnUse" x="-0.623047" y="-0.62207" width="1031" height="394" fill="black">
<rect fill="white" x="-0.623047" y="-0.62207" width="1031" height="394"/>
<path d="M1026.28 129.166V138.235H992.967V361.395H972.699V138.235H939.105V129.166H1026.28Z"/>
<path d="M888.391 257.712H945.028V266.781H868.123V129.166H888.391V257.712Z"/>
<path d="M813.058 129.166H833.326V389.497H813.058V255.953L790.477 263.542C787.392 264.591 784.277 265.485 781.13 266.226C777.984 266.966 774.93 267.583 771.968 268.077C769.007 268.57 766.199 268.91 763.546 269.095C760.893 269.341 758.549 269.465 756.513 269.465C752.132 269.465 748.4 268.971 745.315 267.984C742.23 267.059 739.67 265.856 737.634 264.375C735.598 262.832 733.993 261.136 732.821 259.285C731.649 257.434 730.754 255.645 730.137 253.917C729.582 252.19 729.212 250.616 729.027 249.197C728.904 247.717 728.842 246.637 728.842 245.958L728.841 3.37793H749.201L749.202 237.999C749.202 239.172 749.325 240.837 749.572 242.997C749.819 245.095 750.528 247.192 751.701 249.29C752.873 251.326 754.693 253.115 757.161 254.658C759.629 256.2 763.084 256.971 767.526 256.971C771.166 256.971 774.714 256.786 778.169 256.416C781.624 256.046 785.14 255.49 788.719 254.75C792.359 254.01 796.153 253.084 800.102 251.974C804.05 250.802 808.369 249.413 813.058 247.809V129.166Z"/>
<path d="M712.091 266.781H690.713L683.124 248.92H607.884L600.481 266.781H589.283L639.72 146.842L632.316 129.166H653.972L712.091 266.781ZM611.679 239.85H679.33L645.18 159.891L611.679 239.85Z"/>
<path d="M472.676 129.166H493.961L539.216 241.424L586.414 129.166H596.872L544.306 254.287L549.488 266.781H527.648L472.676 129.166Z"/>
<path d="M462.218 129.166V138.235H398.269V179.973H460.274V189.043H398.269V257.712H462.218V266.781H378.001V129.166H462.218Z"/>
<path d="M297.579 129.166C305.414 129.166 312.17 129.875 317.846 131.294C323.584 132.652 328.427 134.472 332.376 136.755C336.386 139.037 339.594 141.659 342.001 144.621C344.469 147.582 346.35 150.636 347.646 153.783C349.003 156.929 349.898 160.076 350.33 163.223C350.823 166.307 351.07 169.176 351.07 171.829C351.07 175.223 350.515 179.017 349.404 183.212C348.355 187.408 346.412 191.48 343.574 195.428C340.798 199.377 336.972 202.955 332.098 206.164C327.224 209.31 321.024 211.562 313.497 212.92L353.291 266.781H328.489L289.62 214.308H274.627L274.628 361.957H254.36L254.36 129.166H297.579ZM274.627 138.235V205.146H286.196C292.797 205.146 298.751 204.56 304.057 203.387C309.424 202.153 313.99 200.21 317.754 197.557C321.579 194.842 324.51 191.356 326.546 187.099C328.582 182.781 329.6 177.567 329.6 171.459C329.6 164.549 328.366 158.935 325.898 154.616C323.43 150.235 320.16 146.842 316.088 144.436C312.077 142.03 307.481 140.395 302.298 139.531C297.116 138.667 291.81 138.235 286.381 138.235H274.627Z"/>
<path d="M165.97 340.952C159.237 340.952 152.75 339.676 146.507 337.125C140.326 334.573 134.512 331.019 129.065 326.463C123.679 321.815 118.752 316.256 114.284 309.786C109.878 303.316 106.083 296.163 102.9 288.326C99.7179 280.398 97.2392 271.923 95.4644 262.901C93.7507 253.788 92.8939 244.311 92.8939 234.469C92.8939 224.809 93.7507 215.469 95.4644 206.447C97.2392 197.425 99.7179 188.996 102.9 181.159C106.083 173.322 109.878 166.169 114.284 159.699C118.752 153.228 123.679 147.715 129.065 143.159C134.512 138.602 140.326 135.048 146.507 132.497C152.75 129.945 159.237 128.669 165.97 128.669C172.641 128.669 179.067 129.945 185.248 132.497C191.43 134.957 197.214 138.511 202.599 143.159C207.985 147.715 212.881 153.228 217.288 159.699C221.756 166.169 225.55 173.322 228.672 181.159C231.854 188.996 234.302 197.425 236.016 206.447C237.791 215.469 238.678 224.809 238.678 234.469C238.678 244.311 237.791 253.788 236.016 262.901C234.302 271.923 231.854 280.398 228.672 288.326C225.55 296.163 221.756 303.316 217.288 309.786C212.881 316.256 207.985 321.815 202.599 326.463C197.214 331.019 191.43 334.573 185.248 337.125C179.067 339.676 172.641 340.952 165.97 340.952ZM165.97 327.693C174.293 327.693 181.638 325.278 188.003 320.448C194.429 315.618 199.815 309.012 204.16 300.628C208.505 292.244 211.78 282.402 213.983 271.102C216.248 259.711 217.38 247.5 217.38 234.469C217.38 221.529 216.278 209.409 214.075 198.109C211.872 186.809 208.597 177.013 204.252 168.72C199.968 160.428 194.612 153.912 188.186 149.173C181.76 144.343 174.354 141.929 165.97 141.929C157.463 141.929 149.996 144.343 143.57 149.173C137.204 153.912 131.849 160.428 127.504 168.72C123.22 177.013 119.976 186.809 117.773 198.109C115.631 209.409 114.56 221.529 114.56 234.469C114.56 247.5 115.661 259.711 117.864 271.102C120.068 282.402 123.312 292.244 127.596 300.628C131.941 309.012 137.327 315.618 143.753 320.448C150.179 325.278 157.585 327.693 165.97 327.693Z"/>
<path d="M23.6444 257.712H80.2823V266.781H3.37695V129.166H23.6444V257.712Z"/>
<path d="M773.367 365.329V340.6H992.967V365.329H773.367Z"/>
</mask>
<path d="M1026.28 129.166V138.235H992.967V361.395H972.699V138.235H939.105V129.166H1026.28Z" fill="#7E0000"/>
<path d="M888.391 257.712H945.028V266.781H868.123V129.166H888.391V257.712Z" fill="#7E0000"/>
<path d="M813.058 129.166H833.326V389.497H813.058V255.953L790.477 263.542C787.392 264.591 784.277 265.485 781.13 266.226C777.984 266.966 774.93 267.583 771.968 268.077C769.007 268.57 766.199 268.91 763.546 269.095C760.893 269.341 758.549 269.465 756.513 269.465C752.132 269.465 748.4 268.971 745.315 267.984C742.23 267.059 739.67 265.856 737.634 264.375C735.598 262.832 733.993 261.136 732.821 259.285C731.649 257.434 730.754 255.645 730.137 253.917C729.582 252.19 729.212 250.616 729.027 249.197C728.904 247.717 728.842 246.637 728.842 245.958L728.841 3.37793H749.201L749.202 237.999C749.202 239.172 749.325 240.837 749.572 242.997C749.819 245.095 750.528 247.192 751.701 249.29C752.873 251.326 754.693 253.115 757.161 254.658C759.629 256.2 763.084 256.971 767.526 256.971C771.166 256.971 774.714 256.786 778.169 256.416C781.624 256.046 785.14 255.49 788.719 254.75C792.359 254.01 796.153 253.084 800.102 251.974C804.05 250.802 808.369 249.413 813.058 247.809V129.166Z" fill="#7E0000"/>
<path d="M712.091 266.781H690.713L683.124 248.92H607.884L600.481 266.781H589.283L639.72 146.842L632.316 129.166H653.972L712.091 266.781ZM611.679 239.85H679.33L645.18 159.891L611.679 239.85Z" fill="#7E0000"/>
<path d="M472.676 129.166H493.961L539.216 241.424L586.414 129.166H596.872L544.306 254.287L549.488 266.781H527.648L472.676 129.166Z" fill="#7E0000"/>
<path d="M462.218 129.166V138.235H398.269V179.973H460.274V189.043H398.269V257.712H462.218V266.781H378.001V129.166H462.218Z" fill="#7E0000"/>
<path d="M297.579 129.166C305.414 129.166 312.17 129.875 317.846 131.294C323.584 132.652 328.427 134.472 332.376 136.755C336.386 139.037 339.594 141.659 342.001 144.621C344.469 147.582 346.35 150.636 347.646 153.783C349.003 156.929 349.898 160.076 350.33 163.223C350.823 166.307 351.07 169.176 351.07 171.829C351.07 175.223 350.515 179.017 349.404 183.212C348.355 187.408 346.412 191.48 343.574 195.428C340.798 199.377 336.972 202.955 332.098 206.164C327.224 209.31 321.024 211.562 313.497 212.92L353.291 266.781H328.489L289.62 214.308H274.627L274.628 361.957H254.36L254.36 129.166H297.579ZM274.627 138.235V205.146H286.196C292.797 205.146 298.751 204.56 304.057 203.387C309.424 202.153 313.99 200.21 317.754 197.557C321.579 194.842 324.51 191.356 326.546 187.099C328.582 182.781 329.6 177.567 329.6 171.459C329.6 164.549 328.366 158.935 325.898 154.616C323.43 150.235 320.16 146.842 316.088 144.436C312.077 142.03 307.481 140.395 302.298 139.531C297.116 138.667 291.81 138.235 286.381 138.235H274.627Z" fill="#7E0000"/>
<path d="M165.97 340.952C159.237 340.952 152.75 339.676 146.507 337.125C140.326 334.573 134.512 331.019 129.065 326.463C123.679 321.815 118.752 316.256 114.284 309.786C109.878 303.316 106.083 296.163 102.9 288.326C99.7179 280.398 97.2392 271.923 95.4644 262.901C93.7507 253.788 92.8939 244.311 92.8939 234.469C92.8939 224.809 93.7507 215.469 95.4644 206.447C97.2392 197.425 99.7179 188.996 102.9 181.159C106.083 173.322 109.878 166.169 114.284 159.699C118.752 153.228 123.679 147.715 129.065 143.159C134.512 138.602 140.326 135.048 146.507 132.497C152.75 129.945 159.237 128.669 165.97 128.669C172.641 128.669 179.067 129.945 185.248 132.497C191.43 134.957 197.214 138.511 202.599 143.159C207.985 147.715 212.881 153.228 217.288 159.699C221.756 166.169 225.55 173.322 228.672 181.159C231.854 188.996 234.302 197.425 236.016 206.447C237.791 215.469 238.678 224.809 238.678 234.469C238.678 244.311 237.791 253.788 236.016 262.901C234.302 271.923 231.854 280.398 228.672 288.326C225.55 296.163 221.756 303.316 217.288 309.786C212.881 316.256 207.985 321.815 202.599 326.463C197.214 331.019 191.43 334.573 185.248 337.125C179.067 339.676 172.641 340.952 165.97 340.952ZM165.97 327.693C174.293 327.693 181.638 325.278 188.003 320.448C194.429 315.618 199.815 309.012 204.16 300.628C208.505 292.244 211.78 282.402 213.983 271.102C216.248 259.711 217.38 247.5 217.38 234.469C217.38 221.529 216.278 209.409 214.075 198.109C211.872 186.809 208.597 177.013 204.252 168.72C199.968 160.428 194.612 153.912 188.186 149.173C181.76 144.343 174.354 141.929 165.97 141.929C157.463 141.929 149.996 144.343 143.57 149.173C137.204 153.912 131.849 160.428 127.504 168.72C123.22 177.013 119.976 186.809 117.773 198.109C115.631 209.409 114.56 221.529 114.56 234.469C114.56 247.5 115.661 259.711 117.864 271.102C120.068 282.402 123.312 292.244 127.596 300.628C131.941 309.012 137.327 315.618 143.753 320.448C150.179 325.278 157.585 327.693 165.97 327.693Z" fill="#7E0000"/>
<path d="M23.6444 257.712H80.2823V266.781H3.37695V129.166H23.6444V257.712Z" fill="#7E0000"/>
<path d="M773.367 365.329V340.6H992.967V365.329H773.367Z" fill="#7E0000"/>
<path d="M1026.28 129.166V138.235H992.967V361.395H972.699V138.235H939.105V129.166H1026.28Z" stroke="#7E0000" stroke-width="6.75556" mask="url(#path-1-outside-1_414_13)"/>
<path d="M888.391 257.712H945.028V266.781H868.123V129.166H888.391V257.712Z" stroke="#7E0000" stroke-width="6.75556" mask="url(#path-1-outside-1_414_13)"/>
<path d="M813.058 129.166H833.326V389.497H813.058V255.953L790.477 263.542C787.392 264.591 784.277 265.485 781.13 266.226C777.984 266.966 774.93 267.583 771.968 268.077C769.007 268.57 766.199 268.91 763.546 269.095C760.893 269.341 758.549 269.465 756.513 269.465C752.132 269.465 748.4 268.971 745.315 267.984C742.23 267.059 739.67 265.856 737.634 264.375C735.598 262.832 733.993 261.136 732.821 259.285C731.649 257.434 730.754 255.645 730.137 253.917C729.582 252.19 729.212 250.616 729.027 249.197C728.904 247.717 728.842 246.637 728.842 245.958L728.841 3.37793H749.201L749.202 237.999C749.202 239.172 749.325 240.837 749.572 242.997C749.819 245.095 750.528 247.192 751.701 249.29C752.873 251.326 754.693 253.115 757.161 254.658C759.629 256.2 763.084 256.971 767.526 256.971C771.166 256.971 774.714 256.786 778.169 256.416C781.624 256.046 785.14 255.49 788.719 254.75C792.359 254.01 796.153 253.084 800.102 251.974C804.05 250.802 808.369 249.413 813.058 247.809V129.166Z" stroke="#7E0000" stroke-width="6.75556" mask="url(#path-1-outside-1_414_13)"/>
<path d="M712.091 266.781H690.713L683.124 248.92H607.884L600.481 266.781H589.283L639.72 146.842L632.316 129.166H653.972L712.091 266.781ZM611.679 239.85H679.33L645.18 159.891L611.679 239.85Z" stroke="#7E0000" stroke-width="6.75556" mask="url(#path-1-outside-1_414_13)"/>
<path d="M472.676 129.166H493.961L539.216 241.424L586.414 129.166H596.872L544.306 254.287L549.488 266.781H527.648L472.676 129.166Z" stroke="#7E0000" stroke-width="6.75556" mask="url(#path-1-outside-1_414_13)"/>
<path d="M462.218 129.166V138.235H398.269V179.973H460.274V189.043H398.269V257.712H462.218V266.781H378.001V129.166H462.218Z" stroke="#7E0000" stroke-width="6.75556" mask="url(#path-1-outside-1_414_13)"/>
<path d="M297.579 129.166C305.414 129.166 312.17 129.875 317.846 131.294C323.584 132.652 328.427 134.472 332.376 136.755C336.386 139.037 339.594 141.659 342.001 144.621C344.469 147.582 346.35 150.636 347.646 153.783C349.003 156.929 349.898 160.076 350.33 163.223C350.823 166.307 351.07 169.176 351.07 171.829C351.07 175.223 350.515 179.017 349.404 183.212C348.355 187.408 346.412 191.48 343.574 195.428C340.798 199.377 336.972 202.955 332.098 206.164C327.224 209.31 321.024 211.562 313.497 212.92L353.291 266.781H328.489L289.62 214.308H274.627L274.628 361.957H254.36L254.36 129.166H297.579ZM274.627 138.235V205.146H286.196C292.797 205.146 298.751 204.56 304.057 203.387C309.424 202.153 313.99 200.21 317.754 197.557C321.579 194.842 324.51 191.356 326.546 187.099C328.582 182.781 329.6 177.567 329.6 171.459C329.6 164.549 328.366 158.935 325.898 154.616C323.43 150.235 320.16 146.842 316.088 144.436C312.077 142.03 307.481 140.395 302.298 139.531C297.116 138.667 291.81 138.235 286.381 138.235H274.627Z" stroke="#7E0000" stroke-width="6.75556" mask="url(#path-1-outside-1_414_13)"/>
<path d="M165.97 340.952C159.237 340.952 152.75 339.676 146.507 337.125C140.326 334.573 134.512 331.019 129.065 326.463C123.679 321.815 118.752 316.256 114.284 309.786C109.878 303.316 106.083 296.163 102.9 288.326C99.7179 280.398 97.2392 271.923 95.4644 262.901C93.7507 253.788 92.8939 244.311 92.8939 234.469C92.8939 224.809 93.7507 215.469 95.4644 206.447C97.2392 197.425 99.7179 188.996 102.9 181.159C106.083 173.322 109.878 166.169 114.284 159.699C118.752 153.228 123.679 147.715 129.065 143.159C134.512 138.602 140.326 135.048 146.507 132.497C152.75 129.945 159.237 128.669 165.97 128.669C172.641 128.669 179.067 129.945 185.248 132.497C191.43 134.957 197.214 138.511 202.599 143.159C207.985 147.715 212.881 153.228 217.288 159.699C221.756 166.169 225.55 173.322 228.672 181.159C231.854 188.996 234.302 197.425 236.016 206.447C237.791 215.469 238.678 224.809 238.678 234.469C238.678 244.311 237.791 253.788 236.016 262.901C234.302 271.923 231.854 280.398 228.672 288.326C225.55 296.163 221.756 303.316 217.288 309.786C212.881 316.256 207.985 321.815 202.599 326.463C197.214 331.019 191.43 334.573 185.248 337.125C179.067 339.676 172.641 340.952 165.97 340.952ZM165.97 327.693C174.293 327.693 181.638 325.278 188.003 320.448C194.429 315.618 199.815 309.012 204.16 300.628C208.505 292.244 211.78 282.402 213.983 271.102C216.248 259.711 217.38 247.5 217.38 234.469C217.38 221.529 216.278 209.409 214.075 198.109C211.872 186.809 208.597 177.013 204.252 168.72C199.968 160.428 194.612 153.912 188.186 149.173C181.76 144.343 174.354 141.929 165.97 141.929C157.463 141.929 149.996 144.343 143.57 149.173C137.204 153.912 131.849 160.428 127.504 168.72C123.22 177.013 119.976 186.809 117.773 198.109C115.631 209.409 114.56 221.529 114.56 234.469C114.56 247.5 115.661 259.711 117.864 271.102C120.068 282.402 123.312 292.244 127.596 300.628C131.941 309.012 137.327 315.618 143.753 320.448C150.179 325.278 157.585 327.693 165.97 327.693Z" stroke="#7E0000" stroke-width="6.75556" mask="url(#path-1-outside-1_414_13)"/>
<path d="M23.6444 257.712H80.2823V266.781H3.37695V129.166H23.6444V257.712Z" stroke="#7E0000" stroke-width="6.75556" mask="url(#path-1-outside-1_414_13)"/>
<path d="M773.367 365.329V340.6H992.967V365.329H773.367Z" stroke="#7E0000" stroke-width="6.75556" mask="url(#path-1-outside-1_414_13)"/>
</svg>
